<svg xmlns="http://www.w3.org/2000/svg" width="1200" height="520" viewBox="0 0 1200 520" fill="none">
  <rect x="12" y="12" width="1176" height="496" rx="22" stroke="#C79A45" stroke-width="1.1"/>
  <rect x="27" y="27" width="1146" height="466" rx="16" stroke="#E6CEA0" stroke-width=".75" opacity=".9"/>

  <g stroke-linecap="round" stroke-linejoin="round">
    <g stroke="#B78336" stroke-width="1">
      <path d="M44 84V48C44 45.8 45.8 44 48 44H84"/>
      <path d="M1156 84V48C1156 45.8 1154.2 44 1152 44H1116"/>
      <path d="M44 436V472C44 474.2 45.8 476 48 476H84"/>
      <path d="M1156 436V472C1156 474.2 1154.2 476 1152 476H1116"/>

      <path d="M57 76C67 75 75 67 76 57"/>
      <path d="M1143 76C1133 75 1125 67 1124 57"/>
      <path d="M57 444C67 445 75 453 76 463"/>
      <path d="M1143 444C1133 445 1125 453 1124 463"/>

      <path d="M75 44C78 54 86 62 96 65"/>
      <path d="M44 75C54 78 62 86 65 96"/>
      <path d="M1125 44C1122 54 1114 62 1104 65"/>
      <path d="M1156 75C1146 78 1138 86 1135 96"/>
      <path d="M75 476C78 466 86 458 96 455"/>
      <path d="M44 445C54 442 62 434 65 424"/>
      <path d="M1125 476C1122 466 1114 458 1104 455"/>
      <path d="M1156 445C1146 442 1138 434 1135 424"/>
    </g>

    <g stroke="#8A155B" stroke-width=".75" opacity=".5">
      <path d="M91 51C86 59 86 68 91 76C96 68 96 59 91 51Z"/>
      <path d="M51 91C59 86 68 86 76 91C68 96 59 96 51 91Z"/>
      <path d="M1109 51C1114 59 1114 68 1109 76C1104 68 1104 59 1109 51Z"/>
      <path d="M1149 91C1141 86 1132 86 1124 91C1132 96 1141 96 1149 91Z"/>
      <path d="M91 469C86 461 86 452 91 444C96 452 96 461 91 469Z"/>
      <path d="M51 429C59 434 68 434 76 429C68 424 59 424 51 429Z"/>
      <path d="M1109 469C1114 461 1114 452 1109 444C1104 452 1104 461 1109 469Z"/>
      <path d="M1149 429C1141 434 1132 434 1124 429C1132 424 1141 424 1149 429Z"/>
    </g>

    <g fill="#C79A45">
      <circle cx="44" cy="44" r="2"/>
      <circle cx="1156" cy="44" r="2"/>
      <circle cx="44" cy="476" r="2"/>
      <circle cx="1156" cy="476" r="2"/>
      <circle cx="91" cy="91" r="1.7"/>
      <circle cx="1109" cy="91" r="1.7"/>
      <circle cx="91" cy="429" r="1.7"/>
      <circle cx="1109" cy="429" r="1.7"/>
    </g>
  </g>
</svg>
