<svg xmlns="http://www.w3.org/2000/svg" width="260" height="260" viewBox="0 0 260 260" fill="none">
  <g stroke="#B78336" stroke-width=".9" opacity=".55">
    <path d="M0 130C43 88 87 88 130 130C173 172 217 172 260 130"/>
    <path d="M0 130C43 172 87 172 130 130C173 88 217 88 260 130"/>
    <path d="M130 0C88 43 88 87 130 130C172 173 172 217 130 260"/>
    <path d="M130 0C172 43 172 87 130 130C88 173 88 217 130 260"/>
    <path d="M65 0C98 40 98 90 65 130C32 170 32 220 65 260"/>
    <path d="M195 0C162 40 162 90 195 130C228 170 228 220 195 260"/>
    <circle cx="130" cy="130" r="38"/>
    <circle cx="130" cy="130" r="78"/>
  </g>
  <g fill="#8A155B" opacity=".16">
    <circle cx="130" cy="130" r="3"/>
    <circle cx="32" cy="32" r="2.5"/>
    <circle cx="228" cy="32" r="2.5"/>
    <circle cx="32" cy="228" r="2.5"/>
    <circle cx="228" cy="228" r="2.5"/>
  </g>
</svg>
