<?xml version="1.0" encoding="UTF-8" standalone="no"?>
<svg
   xmlns:dc="http://purl.org/dc/elements/1.1/"
   xmlns:cc="http://creativecommons.org/ns#"
   xmlns:rdf="http://www.w3.org/1999/02/22-rdf-syntax-ns#"
   xmlns:svg="http://www.w3.org/2000/svg"
   xmlns="http://www.w3.org/2000/svg"
   xmlns:sodipodi="http://sodipodi.sourceforge.net/DTD/sodipodi-0.dtd"
   xmlns:inkscape="http://www.inkscape.org/namespaces/inkscape"
   width="61.433052mm"
   height="70.04583mm"
   viewBox="0 0 61.433052 70.04583"
   version="1.1"
   id="svg999"
   inkscape:version="1.0.2 (e86c870879, 2021-01-15, custom)"
   sodipodi:docname="Floral border 03 corner by Paul Bürck.svg">
  <defs
     id="defs993" />
  <sodipodi:namedview
     id="base"
     pagecolor="#ffffff"
     bordercolor="#666666"
     borderopacity="1.0"
     inkscape:pageopacity="0.0"
     inkscape:pageshadow="2"
     inkscape:zoom="1.979899"
     inkscape:cx="70.199507"
     inkscape:cy="122.93312"
     inkscape:document-units="mm"
     inkscape:current-layer="layer1"
     inkscape:document-rotation="0"
     showgrid="false"
     inkscape:window-width="1920"
     inkscape:window-height="1057"
     inkscape:window-x="-8"
     inkscape:window-y="-8"
     inkscape:window-maximized="1" />
  <metadata
     id="metadata996">
    <rdf:RDF>
      <cc:Work
         rdf:about="">
        <dc:format>image/svg+xml</dc:format>
        <dc:type
           rdf:resource="http://purl.org/dc/dcmitype/StillImage" />
        <dc:title></dc:title>
      </cc:Work>
    </rdf:RDF>
  </metadata>
  <g
     inkscape:label="Layer 1"
     inkscape:groupmode="layer"
     id="layer1"
     transform="translate(-111.29846,-76.270521)">
    <path
       style="fill:#000000;stroke-width:0.264583"
       d="m 142.54317,145.58762 c -0.54232,-0.38911 -1.09806,-1.06467 -1.23497,-1.50123 -0.13692,-0.43656 -0.50249,-1.49138 -0.81239,-2.34403 -0.3099,-0.85265 -0.61326,-2.2814 -0.67414,-3.175 -0.0609,-0.8936 -0.28909,-2.81534 -0.50715,-4.27055 -0.21806,-1.45521 -0.40076,-4.22724 -0.406,-6.16006 -0.0101,-3.72655 0.2261,-4.7848 1.27688,-5.72105 0.31113,-0.27722 0.56569,-0.7237 0.56569,-0.99219 0,-0.66014 -0.89111,-0.63467 -2.01102,0.0575 -0.57953,0.35817 -1.21766,0.51725 -1.85735,0.46302 l -0.9745,-0.0826 -0.0878,-2.38125 c -0.12308,-3.33773 -0.008,-3.70335 1.47674,-4.70472 1.99567,-1.34567 4.84484,-4.12919 4.67625,-4.56852 -0.19842,-0.51707 -0.96146,-0.48449 -1.75875,0.0751 -0.95152,0.66782 -3.48774,1.83413 -4.44625,2.04465 -0.45465,0.0999 -1.51383,0.0963 -2.35374,-0.008 -1.27152,-0.15782 -1.68676,-0.34933 -2.48101,-1.14424 -1.21097,-1.21198 -1.45593,-2.63139 -1.01321,-5.87101 l 0.32164,-2.35363 -1.35067,-1.25982 c -2.18325,-2.036414 -2.89287,-2.506454 -3.49531,-2.315244 -1.04435,0.33146 -2.66206,-0.15951 -3.74286,-1.13595 -1.59153,-1.43786 -1.90037,-2.222 -1.70463,-4.32807 0.15684,-1.68756 0.11384,-1.88706 -0.77314,-3.58688 -0.61801,-1.18434 -1.03632,-2.45595 -1.22314,-3.71815 -0.27065,-1.82862 -0.31675,-1.91823 -0.9868,-1.91823 -0.45605,0 -1.1383,0.3949 -1.94275,1.12448 -1.73887,1.57704 -2.27934,3.35599 -2.61723,8.61446 -0.28779,4.47868 -0.24275,4.75619 1.2578,7.749494 1.1234,2.24096 1.39706,2.45691 2.89894,2.28762 3.45676,-0.38962 5.29332,2.23494 4.33154,6.19006 -0.45551,1.87322 -0.42806,2.05554 0.52134,3.46228 0.44642,0.66147 1.35838,2.25811 2.02658,3.54808 2.32825,4.49479 6.20231,9.97471 7.5686,10.70593 0.33957,0.18173 1.10145,0.23957 1.91153,0.14513 1.73053,-0.20175 2.27296,-0.81988 2.27296,-2.59014 0,-1.52529 0.52155,-1.93968 1.37151,-1.08972 0.45987,0.45988 0.55348,0.99186 0.67674,3.84611 0.13472,3.11932 0.10882,3.3605 -0.44429,4.13727 -0.32304,0.45367 -0.92101,0.99739 -1.32881,1.20828 -1.07025,0.55345 -1.87344,0.27233 -5.64426,-1.97549 -0.55192,-0.329 -1.07218,-0.52949 -1.15614,-0.44553 -0.26237,0.26237 1.7804,2.8189 2.58478,3.23486 0.42101,0.21771 0.77553,0.42255 0.78782,0.45519 0.0123,0.0326 0.076,0.81602 0.14158,1.74084 0.13736,1.93715 -0.0767,2.32957 -1.40666,2.57908 -2.07029,0.38839 -4.11453,-0.92556 -4.42091,-2.84157 -0.20079,-1.25565 -1.37434,-3.40337 -1.85966,-3.40337 -0.52718,0 -0.94166,1.22739 -0.96469,2.85672 -0.0316,2.23488 -0.79959,3.49553 -2.49222,4.09089 -1.48058,0.52079 -3.29752,0.43676 -4.26515,-0.19726 -0.32745,-0.21455 -0.91699,-1.10678 -1.31009,-1.98272 -0.3931,-0.87595 -0.79232,-1.59263 -0.88715,-1.59263 -0.0948,0 -0.62882,-0.546 -1.18663,-1.21332 -0.89202,-1.06714 -0.97914,-1.29026 -0.72316,-1.85208 0.36613,-0.80355 0.8468,-0.80414 2.23965,-0.003 3.24129,1.86497 6.09128,0.5316 6.08707,-2.84782 -7.4e-4,-0.60254 -0.20762,-1.49285 -0.4597,-1.97848 -0.25208,-0.48564 -0.67899,-1.67626 -0.94869,-2.64584 -0.57703,-2.07446 -1.25505,-4.09325 -1.74728,-5.20245 -0.19373,-0.43656 -0.6035,-1.56765 -0.91059,-2.51354 -1.02335,-3.15206 -1.04017,-3.17799 -2.4777,-3.81972 -1.55095,-0.69236 -2.08466,-1.21847 -2.67895,-2.64081 -0.59623,-1.42697 -0.13124,-4.1978 0.95643,-5.69928 0.91678,-1.26558 0.9336,-1.46138 0.22529,-2.6232 -1.40818,-2.30981 -1.70626,-3.655204 -1.64769,-7.436924 0.0732,-4.72537 0.42791,-6.90843 1.4555,-8.95774 1.28351,-2.55967 2.67053,-3.48391 5.82971,-3.88462 1.09833,-0.13932 1.35143,-0.29761 2.02702,-1.26772 1.00703,-1.44603 1.50148,-1.83865 3.72693,-2.95937 2.06452,-1.03968 4.11935,-1.25671 6.35269,-0.67099 1.8427,0.48328 4.50346,2.18736 6.82423,4.37058 1.16212,1.09324 2.20349,1.98771 2.31415,1.98771 0.11067,0 0.12045,-1.42908 0.0217,-3.17572 -0.16926,-2.99493 -0.14516,-3.23582 0.42332,-4.2313 1.50249,-2.63105 2.12671,-0.18545 2.06938,8.10756 -0.0232,3.34878 0.042,4.07754 0.39623,4.43177 0.23317,0.23316 0.4551,0.42394 0.49319,0.42394 0.0381,0 0.89279,-1.38142 1.89933,-3.06982 2.37863,-3.98993 4.52345,-6.06413 7.91551,-7.65482 2.84336,-1.33338 4.29191,-1.71077 6.56653,-1.71077 2.23003,0 4.22987,0.86821 5.62882,2.44369 0.74523,0.83927 1.3794,1.25969 2.27184,1.50609 1.57332,0.4344 2.09624,1.00505 3.16921,3.45855 0.83953,1.9197 0.86786,2.10078 0.86907,5.55625 0.001,2.89786 -0.13411,4.19596 -0.71608,6.87917 -0.77385,3.567884 -1.09364,4.782544 -1.73294,6.582244 -0.41046,1.15549 -0.40973,1.15954 0.30196,1.67798 0.39239,0.28583 1.02366,1.04907 1.40285,1.69609 0.58827,1.00382 0.67264,1.40836 0.57506,2.75736 -0.13717,1.89642 -0.7233,2.81634 -2.26712,3.5582 -0.90175,0.43332 -1.13096,0.6969 -1.26549,1.45521 -0.0904,0.50932 -0.34093,1.81901 -0.55683,2.91042 -0.2159,1.0914 -0.49588,2.81781 -0.62218,3.83645 -0.1263,1.01865 -0.42253,2.75306 -0.6583,3.85424 -0.37602,1.75623 -0.38459,2.24372 -0.0698,3.96875 0.3482,1.90794 0.39008,1.98137 1.40406,2.4618 0.57483,0.27236 1.43625,0.83791 1.91426,1.25677 0.98295,0.86134 1.42898,0.94311 1.91961,0.35193 0.54993,-0.66262 1.43085,-0.37219 1.53113,0.50479 0.0705,0.61638 -0.15885,0.99312 -1.23745,2.03275 -0.76493,0.73729 -1.74231,1.39165 -2.31471,1.5497 -1.34015,0.37003 -3.94751,0.0768 -4.4722,-0.50298 -0.38385,-0.42416 -1.23663,-3.5819 -1.59432,-5.90359 -0.0901,-0.58483 -0.2821,-0.96697 -0.45661,-0.9088 -0.48414,0.16138 -0.72865,1.46423 -0.824,4.39061 l -0.0892,2.73721 -1.03132,0.62688 c -2.25461,1.37046 -2.73621,1.56004 -3.08271,1.21354 -0.32074,-0.32074 -1.01366,-2.12095 -1.56755,-4.07249 -0.26384,-0.92961 -0.22603,-1.05444 0.61051,-2.01562 1.96655,-2.25953 2.55748,-3.1873 2.59297,-4.07101 0.0344,-0.85596 -0.75385,-0.47375 -2.58453,1.25322 -1.80538,1.7031 -5.46614,3.84001 -6.57835,3.84001 -1.34839,0 -2.56664,-2.97826 -2.86867,-7.01305 -0.12979,-1.73391 -0.0754,-2.36129 0.26136,-3.01244 0.49541,-0.95801 0.69334,-1.00532 1.31806,-0.31501 0.30766,0.33996 0.44407,0.88569 0.41335,1.65365 -0.0895,2.23633 -0.0273,2.46934 0.78788,2.95086 0.72536,0.42848 0.90037,0.43311 2.31511,0.0613 1.48587,-0.39055 2.90846,-1.04017 4.85897,-2.21879 0.94481,-0.57093 1.19298,-0.93829 1.81709,-2.6898 0.18148,-0.50932 0.68254,-1.87854 1.11346,-3.04271 0.43092,-1.16417 0.98643,-2.83104 1.23448,-3.70417 0.24805,-0.87312 0.51762,-1.70656 0.59905,-1.85208 0.57822,-1.03338 0.82024,-2.52057 0.54068,-3.32251 -0.41113,-1.17935 -0.37477,-3.04158 0.0761,-3.90052 0.20629,-0.39296 0.85583,-1.17993 1.44342,-1.74884 0.80986,-0.7841 1.31126,-1.04949 2.07233,-1.09687 0.55218,-0.0344 1.13369,-0.0749 1.29223,-0.0901 0.54008,-0.0517 0.95678,-1.32995 1.69096,-5.18698 0.1108,-0.582094 0.40768,-2.010844 0.65975,-3.175004 1.12708,-5.20543 0.0334,-12.11378 -2.1435,-13.54016 -0.86848,-0.56906 -1.36369,-0.28572 -1.55971,0.8924 -0.16269,0.97787 -0.69614,2.83079 -1.27989,4.44567 -0.15781,0.43657 -1.23147,1.77819 -2.38593,2.9814 l -2.09901,2.18764 0.3367,1.40353 c 0.2907,1.21177 0.27933,1.51448 -0.0832,2.21559 -0.70878,1.37062 -3.14482,2.985804 -4.50323,2.985804 -1.03371,0 -2.50009,2.09636 -5.45175,7.79386 -2.22868,4.30195 -2.28299,4.76879 -0.78836,6.77659 1.86815,2.50958 2.92137,3.23774 5.15159,3.56162 1.63575,0.23754 1.82073,0.34102 1.43673,0.80371 -1.44092,1.73619 -8.35508,2.47984 -10.56444,1.13625 l -0.80415,-0.48903 0.13877,-3.41144 c 0.15059,-3.70192 0.062,-4.26531 -0.67074,-4.26531 -0.49047,0 -1.43871,2.06189 -1.7612,3.82962 -0.0803,0.44033 -0.29903,1.04732 -0.48599,1.34889 -0.18696,0.30156 -0.48461,1.0312 -0.66144,1.62142 -0.29292,0.97767 -0.27158,1.12306 0.23987,1.63451 0.33916,0.33916 0.56294,0.9018 0.56531,1.42129 0.002,0.47294 0.19002,1.6338 0.4175,2.57969 0.22748,0.94588 0.44538,2.85088 0.48422,4.23333 0.0388,1.38245 0.20491,3.40651 0.36903,4.49792 0.16411,1.09141 0.36602,2.53361 0.44868,3.20489 0.0956,0.77631 0.62785,2.05339 1.46243,3.50892 1.40318,2.44717 1.52169,2.9614 0.94121,4.08395 -0.3404,0.65825 -2.16937,1.92952 -2.7078,1.88212 -0.12571,-0.0111 -0.67228,-0.33849 -1.2146,-0.72761 z m 2.49141,-1.38203 c 0.59279,-0.7948 0.40048,-1.57441 -0.38837,-1.57441 -1.14763,0 -1.91785,1.34227 -1.18865,2.07148 0.4572,0.4572 0.9907,0.28904 1.57702,-0.49707 z m -5.07,-37.18163 c 1.67167,-0.40559 1.8371,-0.52548 5.15938,-3.73901 1.88778,-1.826 3.94244,-3.739044 4.56591,-4.251214 l 1.13358,-0.93121 -0.0389,-1.8789 c -0.0491,-2.37466 0.51304,-3.82564 1.97005,-5.08486 1.0259,-0.88662 1.1795,-0.93633 2.49041,-0.80599 0.9158,0.091 1.97899,0.46433 3.08631,1.08358 0.96245,0.53824 1.86971,0.87543 2.1087,0.78372 0.67057,-0.25732 2.48215,-2.69387 3.34122,-4.4939 0.93417,-1.95737 1.17503,-4.95764 0.50785,-6.32604 -1.15315,-2.36517 -6.53556,-2.6557 -10.83804,-0.585 -3.5165,1.69242 -5.37362,3.81468 -8.50628,9.72073 -0.53112,1.00132 -1.23158,2.19402 -1.55658,2.65045 -0.89956,1.2633 -0.94312,2.72236 -0.14401,4.82247 0.37503,0.98558 0.68188,1.84339 0.68188,1.90624 0,0.0628 -0.43582,0.196024 -0.96848,0.295944 -0.87649,0.16444 -1.04088,0.0965 -1.73085,-0.715614 -0.41931,-0.49352 -0.8858,-1.19496 -1.03664,-1.55876 -0.15084,-0.3638 -0.30766,-2.68552 -0.34849,-5.15938 -0.0916,-5.54816 -0.36664,-6.48803 -2.50502,-8.55915 -1.56737,-1.51807 -4.37712,-3.46312 -6.19493,-4.28844 -1.26534,-0.57449 -4.60744,-0.7045 -5.55538,-0.21611 -1.70309,0.87745 -3.32543,2.4284 -3.87396,3.70348 -0.36041,0.8378 -0.8625,1.49845 -1.34929,1.7754 -0.60097,0.34191 -0.77566,0.62987 -0.77695,1.28079 -0.003,1.39233 0.58682,3.49759 1.11286,3.97364 0.45332,0.41026 0.55399,0.41288 1.21129,0.0315 0.39429,-0.22877 1.6268,-0.49867 2.73893,-0.59979 1.74487,-0.15864 2.16758,-0.10959 3.08384,0.35785 1.37003,0.69894 2.17015,1.73179 2.17015,2.80139 0,0.92578 1.05931,2.59284 2.23545,3.518 0.3877,0.30496 1.29342,0.74995 2.01271,0.98886 0.71929,0.23891 1.4567,0.63503 1.63868,0.88026 0.18198,0.24523 1.22384,0.88515 2.31524,1.42204 1.91159,0.940354 2.53349,1.559384 3.23935,3.224374 0.29298,0.69109 -0.26077,2.27361 -0.79557,2.27361 -0.23408,0 -1.18102,0.18946 -2.10432,0.42101 -1.64708,0.41307 -1.70225,0.40933 -2.92732,-0.19844 -1.14372,-0.56741 -1.26738,-0.72344 -1.47225,-1.85758 -0.12863,-0.71209 -0.39765,-1.30491 -0.63318,-1.39529 -0.55874,-0.21441 -0.58068,-0.17253 -0.87861,1.67742 -0.33555,2.08362 -0.11006,2.49338 1.65893,3.01456 1.83563,0.54082 3.64887,0.55255 5.7723,0.0374 z m -9.51605,12.05031 c -1.76185,-0.9711 -2.23733,-1.38938 -3.25262,-2.86133 -0.71077,-1.03046 -0.75154,-1.1926 -0.39061,-1.55353 0.36093,-0.36093 0.50272,-0.32692 1.35853,0.32584 0.88567,0.67553 1.0911,0.71913 2.80946,0.59618 1.24836,-0.0893 2.02133,-0.28415 2.36643,-0.59645 1.07193,-0.9701 1.79743,0.20887 1.47042,2.38952 -0.15249,1.01686 -0.33349,1.29228 -1.2149,1.8487 -0.56964,0.3596 -1.18691,0.65166 -1.3717,0.64902 -0.1848,-0.003 -0.98355,-0.36171 -1.77501,-0.79795 z m 23.39478,-5.43747 c -0.14296,-0.0349 -0.58591,-0.13535 -0.98432,-0.22317 -0.49736,-0.10962 -0.89124,-0.48672 -1.25677,-1.20322 -0.64159,-1.25762 -0.65806,-1.64164 -0.11544,-2.69096 0.37385,-0.72295 0.50875,-0.78907 1.30499,-0.6397 1.38916,0.26061 3.75765,-0.69306 4.94369,-1.99057 1.03046,-1.1273 1.85093,-1.29302 2.02132,-0.40826 0.0517,0.26864 -0.17625,1.42395 -0.50664,2.56735 -0.74945,2.59367 -2.07611,4.07835 -3.9585,4.43002 -0.65362,0.12211 -1.30537,0.19344 -1.44833,0.15851 z"
       id="path1015" />
  </g>
</svg>
